<?xml version="1.0" encoding="UTF-8" standalone="no"?>
<!DOCTYPE svg PUBLIC "-//W3C//DTD SVG 1.1//EN" "http://www.w3.org/Graphics/SVG/1.1/DTD/svg11.dtd">
<svg width="100%" height="100%" viewBox="0 0 831 831" version="1.1" xmlns="http://www.w3.org/2000/svg" xmlns:xlink="http://www.w3.org/1999/xlink" xml:space="preserve" xmlns:serif="http://www.serif.com/" style="fill-rule:evenodd;clip-rule:evenodd;stroke-linecap:round;stroke-linejoin:round;stroke-miterlimit:5;">
    <g transform="matrix(1,0,0,0.999957,-85,-85)">
        <g id="big-circle" serif:id="big circle" transform="matrix(1.06101,0,0,1.06105,-1271.88,-2500.64)">
            <circle cx="1670" cy="2828" r="377" style="fill:none;stroke:rgb(35,35,35);stroke-width:28.28px;"/>
        </g>
        <g id="square-tilted" serif:id="square tilted" transform="matrix(1,0,0,1.00004,-1203,-2378.14)">
            <path d="M1703,2478.03L1303,2878.03L1703,3278.03L2103,2878.03L1703,2478.03Z" style="fill:none;stroke:rgb(35,35,35);stroke-width:30px;"/>
        </g>
        <g id="square" transform="matrix(1,0,0,1.00004,-1203,-2378.14)">
            <path d="M1420.16,2595.3L1420.16,3160.88L1985.84,3160.88L1985.73,2595.19L1420.16,2595.3Z" style="fill:none;stroke:rgb(35,35,35);stroke-width:30px;"/>
        </g>
        <g id="small-circle-bottom-left" serif:id="small circle bottom left" transform="matrix(0.375123,0,0,0.375139,-267.877,-419.445)">
            <circle cx="1670" cy="2828" r="377" style="fill:none;stroke:rgb(35,35,35);stroke-width:79.97px;"/>
        </g>
        <g id="small-circle-bottom-right" serif:id="small circle bottom right" transform="matrix(0.375123,0,0,0.375139,14.966,-419.445)">
            <circle cx="1670" cy="2828" r="377" style="fill:none;stroke:rgb(35,35,35);stroke-width:79.97px;"/>
        </g>
        <g id="small-circle-top-right" serif:id="small circle top right" transform="matrix(0.375123,0,0,0.375139,14.966,-702.299)">
            <circle cx="1670" cy="2828" r="377" style="fill:none;stroke:rgb(35,35,35);stroke-width:79.97px;"/>
        </g>
        <g id="small-circle-top-left" serif:id="small circle top left" transform="matrix(0.375123,0,0,0.375139,-267.877,-702.299)">
            <circle cx="1670" cy="2828" r="377" style="fill:none;stroke:rgb(35,35,35);stroke-width:79.97px;"/>
        </g>
        <g id="vertical-line" serif:id="vertical line" transform="matrix(1,0,0,1.00004,-1203,-2378.14)">
            <path d="M1703,2478.03L1703,3278.03" style="fill:none;stroke:rgb(35,35,35);stroke-width:30px;"/>
        </g>
        <g id="horizontal-line" serif:id="horizontal line" transform="matrix(-1.11022e-16,-1.00004,1,1.11022e-16,-2378.03,2203.1)">
            <path d="M1703,2478.03L1703,3278.03" style="fill:none;stroke:rgb(35,35,35);stroke-width:30px;"/>
        </g>
    </g>
</svg>
