<?xml version="1.0" encoding="UTF-8" standalone="no"?>
<!DOCTYPE svg PUBLIC "-//W3C//DTD SVG 1.1//EN" "http://www.w3.org/Graphics/SVG/1.1/DTD/svg11.dtd">
<svg width="100%" height="100%" viewBox="0 0 783 234" version="1.1" xmlns="http://www.w3.org/2000/svg" xmlns:xlink="http://www.w3.org/1999/xlink" xml:space="preserve" xmlns:serif="http://www.serif.com/" style="fill-rule:evenodd;clip-rule:evenodd;stroke-linejoin:round;stroke-miterlimit:1.41421;">
    <g transform="matrix(1.30541,0,0,1.30541,-1343.17,-906.133)">
        <g>
            <g>
                <path d="M1096.93,714.738C1109.73,714.738 1120.53,719.338 1129.53,728.538C1138.53,737.738 1142.93,749.138 1142.93,762.938C1142.93,776.738 1138.53,788.138 1129.53,797.338C1120.53,806.538 1109.73,811.138 1096.93,811.138C1083.93,811.138 1073.13,806.538 1064.33,797.338C1055.33,788.138 1050.93,776.738 1050.93,762.938C1050.93,749.138 1055.33,737.738 1064.33,728.538C1073.13,719.338 1083.93,714.738 1096.93,714.738ZM1048.53,713.938C1035.53,727.138 1028.93,743.538 1028.93,762.938C1028.93,782.338 1035.53,798.738 1048.53,811.938C1061.53,825.138 1077.53,831.738 1096.93,831.738C1116.33,831.738 1132.53,825.138 1145.53,811.938C1158.53,798.738 1164.93,782.338 1164.93,762.938C1164.93,743.538 1158.53,727.138 1145.53,713.938C1132.53,700.738 1116.33,694.138 1096.93,694.138C1077.53,694.138 1061.53,700.738 1048.53,713.938Z" style="fill:rgb(35,35,35);fill-rule:nonzero;"/>
                <path d="M1230.53,811.738C1214.73,811.738 1201.73,800.338 1201.73,780.938C1201.73,771.538 1204.53,764.138 1210.33,758.738C1215.93,753.538 1222.53,750.938 1230.33,750.938C1237.93,750.938 1244.53,753.538 1250.13,758.738C1255.73,764.138 1258.53,771.538 1258.53,781.138C1258.53,800.338 1245.73,811.738 1230.53,811.738ZM1232.73,732.338C1219.13,732.338 1208.73,737.138 1201.33,746.938L1201.33,733.938L1180.93,733.938L1180.93,870.338L1201.73,870.338L1201.73,817.338C1209.53,826.338 1219.93,830.738 1233.13,830.738C1245.53,830.738 1256.33,826.338 1265.53,817.538C1274.53,808.738 1279.13,796.738 1279.13,781.338C1279.13,765.938 1274.53,753.938 1265.13,745.338C1255.73,736.738 1244.93,732.338 1232.73,732.338Z" style="fill:rgb(35,35,35);fill-rule:nonzero;"/>
                <path d="M1350.93,756.138C1355.53,760.138 1357.73,765.938 1357.93,773.338L1309.13,773.338C1310.53,751.138 1337.73,743.738 1350.93,756.138ZM1378.73,778.738C1378.73,763.538 1374.73,751.938 1366.53,743.738C1358.33,735.538 1347.93,731.538 1335.53,731.538C1322.33,731.538 1310.93,735.938 1301.53,744.538C1291.93,753.338 1287.13,765.338 1287.13,780.738C1287.13,796.138 1292.13,808.338 1301.93,817.338C1311.73,826.338 1323.33,830.738 1336.53,830.738C1353.13,830.738 1366.73,824.138 1377.33,810.938L1363.93,797.938C1357.53,806.938 1348.53,811.338 1337.13,811.338C1323.73,811.338 1312.73,804.338 1309.73,790.538L1377.93,790.538C1378.53,787.338 1378.73,783.338 1378.73,778.738Z" style="fill:rgb(35,35,35);fill-rule:nonzero;"/>
                <path d="M1392.73,828.738L1413.53,828.738L1413.53,779.738C1413.53,762.138 1423.73,751.538 1437.33,751.538C1448.73,751.538 1456.53,758.938 1456.53,774.138L1456.53,828.738L1477.33,828.738L1477.33,766.938C1477.33,755.538 1473.93,746.938 1467.33,740.738C1460.73,734.538 1452.53,731.538 1443.13,731.538C1429.73,731.538 1419.73,736.938 1413.13,747.538L1413.13,733.938L1392.73,733.938L1392.73,828.738Z" style="fill:rgb(35,35,35);fill-rule:nonzero;"/>
                <g transform="matrix(1,0,0,1.0228,0,-18.8922)">
                    <rect x="1497.33" y="697.138" width="20.8" height="131.6" style="fill:rgb(35,35,35);fill-rule:nonzero;"/>
                </g>
                <g transform="matrix(1,0,0,1,-11,0)">
                    <path d="M1618.33,733.938L1618.33,779.538C1618.33,797.138 1607.53,807.738 1593.73,807.738C1581.73,807.738 1573.53,799.538 1573.53,785.338L1573.53,733.938L1552.73,733.938L1552.73,788.538C1552.73,801.138 1556.53,810.738 1564.13,817.538C1571.73,824.338 1580.53,827.738 1590.33,827.738C1602.93,827.738 1612.33,822.138 1618.73,811.138L1618.73,826.138C1618.73,843.538 1607.33,853.538 1592.93,853.538C1579.53,853.538 1567.93,844.738 1564.93,830.338L1545.13,837.138C1547.93,848.738 1553.73,857.538 1562.53,863.738C1571.33,869.738 1581.13,872.738 1591.93,872.738C1604.73,872.738 1615.73,868.538 1625.13,860.338C1634.53,852.138 1639.13,840.738 1639.13,826.138L1639.13,733.938L1618.33,733.938Z" style="fill:rgb(35,35,35);fill-rule:nonzero;"/>
                </g>
            </g>
        </g>
    </g>
</svg>
